<svg width="543" height="393" viewBox="0 0 543 393" fill="none" xmlns="http://www.w3.org/2000/svg">
<path fill-rule="evenodd" clip-rule="evenodd" d="M522.008 -6.88306C522.556 -6.82046 522.95 -6.32488 522.888 -5.77616C505.041 150.665 386.569 250.303 252.345 288.535C118.168 326.753 -32.1192 303.708 -113.773 214.349C-114.146 213.941 -114.117 213.308 -113.71 212.936C-113.302 212.563 -112.669 212.592 -112.297 213C-31.331 301.606 118.058 324.705 251.797 286.611C385.488 248.532 503.171 149.406 520.901 -6.00285C520.963 -6.55158 521.459 -6.94566 522.008 -6.88306Z" fill="white"/>
<g filter="url(#filter0_i_88_312)">
<rect width="383.169" height="92.6932" rx="4" transform="matrix(0.961205 -0.275834 0.270352 0.962762 52.7253 293.193)" fill="#C64530"/>
</g>
<rect x="0.615779" y="0.343464" width="382.169" height="91.6932" rx="3.5" transform="matrix(0.961205 -0.275834 0.270352 0.962762 52.6564 293.376)" stroke="white"/>
<g filter="url(#filter1_i_88_312)">
<ellipse cx="3.54162" cy="3.59479" rx="3.54162" ry="3.59479" transform="matrix(0.993174 -0.108143 0.108181 0.995063 60.1724 296.197)" fill="#D9D9D9"/>
</g>
<g filter="url(#filter2_i_88_312)">
<ellipse cx="3.54003" cy="3.59636" rx="3.54003" ry="3.59636" transform="matrix(0.961205 -0.275834 0.270352 0.962762 79.5898 369.729)" fill="#D9D9D9"/>
</g>
<g filter="url(#filter3_i_88_312)">
<ellipse cx="3.54003" cy="3.59636" rx="3.54003" ry="3.59636" transform="matrix(0.961205 -0.275834 0.270352 0.962762 430.553 269.015)" fill="#D9D9D9"/>
</g>
<g filter="url(#filter4_i_88_312)">
<ellipse cx="3.54003" cy="3.59636" rx="3.54003" ry="3.59636" transform="matrix(0.961205 -0.275834 0.270352 0.962762 409.997 195.809)" fill="#D9D9D9"/>
</g>
<g filter="url(#filter5_i_88_312)">
<path d="M194.391 287.319C193.274 287.747 192.151 287.968 191.02 287.982C189.906 287.99 188.916 287.77 188.051 287.322C187.186 286.874 186.58 286.187 186.234 285.261C186.123 284.964 186.058 284.629 186.038 284.257C186.008 283.749 186.08 283.462 186.254 283.395C186.516 283.295 186.702 283.393 186.813 283.69C186.859 283.813 186.886 283.992 186.895 284.229C186.903 284.465 186.944 284.679 187.016 284.872C187.303 285.641 187.816 286.213 188.555 286.589C189.287 286.948 190.119 287.119 191.049 287.102C191.997 287.078 192.925 286.892 193.832 286.545C195.802 285.789 197.3 284.676 198.325 283.204C198.857 282.44 199.231 281.628 199.447 280.765C199.656 279.886 199.614 279.053 199.32 278.266C199.052 277.55 198.647 277.026 198.104 276.694C197.579 276.356 196.94 276.142 196.188 276.05C195.43 275.941 194.589 275.904 193.665 275.939C191.021 276.013 189.48 275.465 189.042 274.294C188.807 273.665 188.817 272.972 189.072 272.215C189.327 271.457 189.713 270.73 190.23 270.032C190.74 269.317 191.267 268.726 191.81 268.258C192.603 267.554 193.369 266.99 194.108 266.567C194.858 266.12 195.573 265.766 196.253 265.505C197.178 265.151 197.913 265.119 198.46 265.408C199.001 265.681 199.389 266.132 199.624 266.761C199.807 267.25 199.861 267.769 199.787 268.317C199.73 268.858 199.563 269.372 199.286 269.857C198.977 270.416 198.682 270.748 198.403 270.855C198.107 270.969 197.906 270.886 197.802 270.606C197.743 270.449 197.779 270.305 197.91 270.175C198.856 269.133 199.136 268.097 198.751 267.065C198.581 266.611 198.326 266.329 197.986 266.22C197.657 266.086 197.187 266.136 196.577 266.37C196.019 266.584 195.414 266.886 194.762 267.276C194.128 267.659 193.499 268.11 192.875 268.629C192.333 269.096 191.81 269.646 191.309 270.278C190.807 270.91 190.424 271.537 190.158 272.158C189.909 272.773 189.87 273.307 190.039 273.762C190.399 274.723 191.611 275.138 193.675 275.006C197.245 274.796 199.422 275.74 200.206 277.837C200.441 278.466 200.525 279.143 200.457 279.869C200.407 280.587 200.241 281.29 199.96 281.977C199.696 282.658 199.371 283.282 198.985 283.85C198.431 284.662 197.752 285.351 196.948 285.92C196.167 286.499 195.315 286.965 194.391 287.319ZM206.265 281.328C204.853 281.87 203.849 281.346 203.255 279.755C202.98 279.021 202.867 278.185 202.915 277.248C202.964 276.31 203.148 275.39 203.469 274.488C203.783 273.568 204.207 272.756 204.741 272.052C205.293 271.341 205.935 270.845 206.667 270.564C207.312 270.317 207.875 270.381 208.354 270.757C208.834 271.133 209.184 271.618 209.406 272.212C209.7 272.998 209.844 273.862 209.837 274.804C209.824 275.728 209.674 276.635 209.389 277.524C209.103 278.412 208.698 279.197 208.175 279.877C207.652 280.557 207.015 281.041 206.265 281.328ZM205.926 280.5C206.03 280.46 206.088 280.427 206.099 280.403C206.746 280.055 207.283 279.57 207.708 278.947C208.133 278.325 208.444 277.636 208.64 276.881C208.847 276.103 208.934 275.32 208.899 274.534C208.864 273.748 208.72 273.015 208.465 272.333C208.315 271.931 208.084 271.66 207.772 271.52C207.46 271.379 207.13 271.376 206.781 271.51C206.276 271.704 205.813 272.121 205.395 272.761C204.994 273.394 204.661 274.131 204.397 274.971C204.151 275.805 204.004 276.641 203.958 277.477C203.906 278.297 203.984 278.986 204.193 279.545C204.546 280.489 205.123 280.807 205.926 280.5ZM212.236 279.939C211.957 280.046 211.775 279.986 211.69 279.758C211.651 279.654 211.638 279.539 211.651 279.414C211.681 279.282 211.701 279.175 211.71 279.091L212.287 273.355C212.527 270.906 212.605 269.567 212.52 269.34C212.428 269.095 212.505 268.926 212.749 268.832C213.08 268.705 213.308 268.808 213.432 269.14C213.497 269.315 213.523 269.624 213.51 270.069C213.497 270.514 213.463 271.036 213.409 271.637C213.33 272.706 213.242 273.539 213.146 274.135C213.441 273.323 213.757 272.542 214.095 271.793C214.433 271.044 214.79 270.318 215.165 269.615C216.279 267.529 217.281 266.316 218.17 265.975C218.781 265.741 219.194 265.912 219.409 266.489C219.618 267.048 219.54 267.398 219.173 267.538C218.999 267.605 218.813 267.507 218.614 267.243C218.484 267.053 218.323 266.995 218.131 267.069C217.834 267.183 217.38 267.727 216.767 268.701C216.087 269.761 215.447 270.955 214.847 272.284C214.265 273.606 213.719 275.214 213.211 277.107L212.589 279.444C212.552 279.558 212.508 279.654 212.458 279.734C212.432 279.824 212.358 279.892 212.236 279.939ZM220.64 276.717C220.361 276.824 220.179 276.764 220.094 276.537C220.055 276.432 220.042 276.317 220.055 276.192C220.085 276.06 220.105 275.953 220.114 275.87L220.691 270.134C220.931 267.684 221.009 266.345 220.924 266.118C220.833 265.873 220.909 265.704 221.153 265.611C221.484 265.484 221.712 265.586 221.836 265.918C221.902 266.093 221.928 266.403 221.914 266.847C221.901 267.292 221.867 267.814 221.813 268.415C221.734 269.484 221.646 270.317 221.55 270.913C221.845 270.101 222.161 269.32 222.499 268.571C222.837 267.822 223.194 267.096 223.569 266.393C224.683 264.307 225.685 263.094 226.574 262.753C227.185 262.519 227.598 262.69 227.813 263.267C228.022 263.826 227.944 264.176 227.578 264.317C227.403 264.383 227.217 264.285 227.019 264.021C226.888 263.832 226.727 263.774 226.535 263.847C226.238 263.961 225.784 264.505 225.171 265.479C224.491 266.539 223.851 267.733 223.251 269.062C222.669 270.384 222.123 271.992 221.615 273.885L220.993 276.222C220.956 276.336 220.912 276.433 220.862 276.512C220.836 276.602 220.762 276.67 220.64 276.717ZM232.592 281.306C231.529 281.714 230.762 281.289 230.291 280.03C229.893 278.964 229.734 277.846 229.815 276.676C229.819 276.475 229.9 276.344 230.057 276.284C230.371 276.164 230.58 276.243 230.684 276.523C230.711 276.593 230.717 276.69 230.704 276.815C230.715 276.951 230.72 277.099 230.72 277.258C230.722 277.637 230.757 278.024 230.825 278.417C230.892 278.811 231.001 279.209 231.151 279.611C231.321 280.065 231.496 280.348 231.677 280.458C231.858 280.569 232.044 280.587 232.236 280.514C232.69 280.34 233.143 279.926 233.597 279.273C234.068 278.613 234.465 277.701 234.787 276.538C235.017 275.711 235.217 274.755 235.39 273.67C235.562 272.585 235.721 271.355 235.865 269.981C236.064 268.167 236.192 266.349 236.249 264.529C236.022 265.255 235.771 265.971 235.496 266.676C235.222 267.38 234.899 268.064 234.528 268.725C233.545 270.521 232.573 271.603 231.614 271.97C230.463 272.412 229.639 271.968 229.143 270.64C228.966 270.168 228.841 269.567 228.767 268.836C228.711 268.098 228.688 267.238 228.699 266.254C228.7 266.094 228.683 265.971 228.651 265.883C228.611 265.778 228.598 265.664 228.611 265.539C228.662 264.82 228.869 263.961 229.233 262.962C229.314 262.752 229.407 262.626 229.511 262.586C229.773 262.486 229.976 262.628 230.119 263.012C229.362 266.16 229.307 268.599 229.954 270.329C230.228 271.063 230.653 271.32 231.229 271.099C231.874 270.852 232.605 270.062 233.423 268.729C234.007 267.786 234.501 266.787 234.905 265.734C235.302 264.662 235.619 263.591 235.857 262.521C236.025 261.797 236.141 261.174 236.204 260.65C236.278 260.102 236.312 259.739 236.306 259.562C236.295 259.266 236.368 259.088 236.525 259.028C236.856 258.901 237.074 258.977 237.179 259.257C237.231 259.397 237.256 259.677 237.254 260.098C237.262 260.494 237.262 260.973 237.253 261.536C237.242 262.36 237.201 263.475 237.128 264.881C237.056 266.288 236.938 267.971 236.774 269.932C236.568 272.369 236.24 274.423 235.788 276.095C235.463 277.358 235.006 278.483 234.417 279.468C233.846 280.446 233.238 281.059 232.592 281.306Z" fill="white"/>
<path d="M188.55 292.016L240.356 272.156L240.846 273.466L189.04 293.327L188.55 292.016Z" fill="white"/>
<path d="M259.515 255.016L259.817 266.814L257.167 267.576L254.054 262.228C253.993 262.127 253.906 261.97 253.792 261.759C253.679 261.548 253.557 261.317 253.427 261.068C253.296 260.813 253.174 260.574 253.063 260.351C252.955 260.122 252.874 259.939 252.82 259.803C252.844 259.948 252.867 260.145 252.888 260.393C252.915 260.64 252.938 260.905 252.957 261.186C252.982 261.466 253.002 261.729 253.017 261.974C253.032 262.219 253.041 262.406 253.045 262.535L253.187 268.721L250.544 269.481L244.649 259.292L246.939 258.634L250.032 264.231C250.123 264.4 250.229 264.602 250.349 264.839C250.475 265.074 250.602 265.322 250.729 265.583C250.861 265.838 250.982 266.087 251.094 266.332C251.21 266.569 251.304 266.778 251.376 266.958C251.348 266.76 251.318 266.53 251.287 266.268C251.256 266.001 251.225 265.73 251.197 265.457C251.172 265.176 251.153 264.916 251.14 264.676C251.126 264.436 251.12 264.24 251.12 264.089L250.986 257.469L253.186 256.837L256.519 262.536C256.592 262.661 256.683 262.832 256.793 263.05C256.907 263.261 257.026 263.492 257.151 263.744C257.276 263.995 257.394 264.243 257.506 264.487C257.622 264.725 257.716 264.933 257.788 265.113C257.752 264.852 257.715 264.535 257.674 264.162C257.638 263.783 257.605 263.405 257.574 263.029C257.549 262.651 257.53 262.334 257.518 262.077L257.225 255.675L259.515 255.016ZM270.313 263.794L263.991 265.613L260.896 254.618L267.218 252.8L267.756 254.71L263.762 255.859L264.441 258.273L268.158 257.204L268.695 259.114L264.979 260.183L265.777 263.018L269.771 261.869L270.313 263.794ZM283.324 260.051L281.792 257.663L277.79 258.814L277.731 261.66L275.223 262.382L275.99 250.228L278.835 249.409L285.832 259.33L283.324 260.051ZM280.686 255.868L279.17 253.54C279.072 253.384 278.943 253.185 278.783 252.944C278.627 252.696 278.468 252.447 278.305 252.195C278.146 251.938 278.012 251.713 277.904 251.522C277.912 251.742 277.914 252.018 277.91 252.35C277.91 252.675 277.908 252.984 277.904 253.278C277.9 253.572 277.897 253.782 277.894 253.907L277.825 256.691L280.686 255.868ZM287.325 247.016C288.321 246.729 289.175 246.613 289.889 246.668C290.607 246.722 291.193 246.946 291.645 247.342C292.097 247.737 292.428 248.306 292.637 249.048C292.778 249.549 292.806 250.015 292.722 250.446C292.637 250.877 292.477 251.267 292.24 251.617C292.003 251.967 291.727 252.277 291.414 252.546L295.991 256.407L293.408 257.15L289.6 253.685L288.361 254.042L289.549 258.261L287.221 258.93L284.126 247.936L287.325 247.016ZM287.697 248.973L286.991 249.176L287.828 252.147L288.578 251.931C289.349 251.709 289.864 251.423 290.122 251.072C290.384 250.715 290.445 250.286 290.303 249.784C290.157 249.263 289.872 248.944 289.45 248.827C289.032 248.708 288.448 248.757 287.697 248.973ZM303.694 254.191L297.372 256.01L294.277 245.016L300.599 243.197L301.137 245.107L297.142 246.256L297.822 248.67L301.538 247.601L302.076 249.511L298.359 250.58L299.158 253.415L303.152 252.266L303.694 254.191Z" fill="white"/>
<path d="M191.107 303.7C189.994 304.02 189.067 304.524 188.327 305.211C187.596 305.882 187.051 306.709 186.692 307.693C186.346 308.673 186.185 309.783 186.209 311.023C186.233 312.262 186.448 313.603 186.854 315.044C187.401 316.987 188.106 318.579 188.97 319.821C189.842 321.047 190.888 321.877 192.106 322.313C193.321 322.736 194.729 322.717 196.331 322.256C197.444 321.935 198.523 321.49 199.566 320.919C200.622 320.344 201.741 319.636 202.924 318.794L204.3 323.682C203.228 324.533 202.133 325.234 201.017 325.785C199.904 326.349 198.616 326.842 197.152 327.263C194.324 328.076 191.832 328.163 189.677 327.523C187.531 326.867 185.724 325.612 184.255 323.758C182.783 321.892 181.65 319.549 180.856 316.729C180.27 314.648 180.015 312.662 180.092 310.771C180.168 308.879 180.572 307.144 181.304 305.565C182.037 303.985 183.107 302.621 184.514 301.471C185.922 300.321 187.665 299.447 189.742 298.849C191.106 298.457 192.519 298.24 193.982 298.198C195.454 298.141 196.9 298.233 198.32 298.474L197.777 303.752C196.613 303.559 195.461 303.429 194.32 303.365C193.179 303.3 192.108 303.412 191.107 303.7ZM210.448 323.031L202.71 295.545L208.529 293.871L214.912 316.545L226.042 313.343L227.397 318.156L210.448 323.031ZM253.212 295.832C253.808 297.951 254.089 299.956 254.054 301.85C254.015 303.731 253.634 305.452 252.911 307.015C252.2 308.575 251.12 309.929 249.671 311.077C248.219 312.213 246.373 313.103 244.133 313.747C241.893 314.392 239.86 314.618 238.034 314.425C236.204 314.22 234.575 313.645 233.146 312.701C231.729 311.754 230.513 310.485 229.497 308.894C228.481 307.303 227.673 305.442 227.074 303.311C226.273 300.466 226.039 297.857 226.372 295.485C226.714 293.097 227.691 291.041 229.303 289.318C230.914 287.594 233.215 286.302 236.206 285.442C239.184 284.585 241.795 284.464 244.037 285.079C246.292 285.69 248.181 286.922 249.703 288.774C251.238 290.622 252.408 292.975 253.212 295.832ZM233.184 301.594C233.724 303.512 234.428 305.098 235.295 306.352C236.171 307.59 237.228 308.438 238.466 308.895C239.7 309.339 241.13 309.327 242.757 308.859C244.409 308.384 245.644 307.629 246.462 306.594C247.276 305.547 247.721 304.268 247.796 302.756C247.88 301.228 247.652 299.505 247.112 297.587C246.3 294.705 245.124 292.591 243.582 291.246C242.04 289.901 240.036 289.583 237.571 290.292C235.932 290.764 234.699 291.525 233.872 292.576C233.054 293.611 232.597 294.894 232.501 296.425C232.413 297.941 232.641 299.664 233.184 301.594ZM276.829 295.684C277.287 297.313 277.292 298.843 276.842 300.273C276.392 301.703 275.502 302.962 274.172 304.049C272.854 305.133 271.118 305.984 268.966 306.604C268.015 306.877 267.065 307.083 266.116 307.22C265.18 307.354 264.259 307.422 263.354 307.425C262.457 307.412 261.583 307.332 260.729 307.185L259.205 301.77C260.669 301.972 262.167 302.104 263.699 302.164C265.231 302.225 266.685 302.057 268.062 301.661C269.013 301.387 269.741 301.042 270.246 300.626C270.763 300.206 271.092 299.739 271.231 299.225C271.37 298.711 271.361 298.172 271.202 297.608C271.008 296.918 270.61 296.396 270.01 296.04C269.409 295.684 268.642 295.411 267.709 295.218C266.788 295.023 265.752 294.826 264.601 294.629C263.878 294.512 263.081 294.348 262.211 294.138C261.336 293.915 260.473 293.588 259.621 293.155C258.769 292.723 257.999 292.125 257.31 291.361C256.631 290.581 256.114 289.564 255.762 288.311C255.299 286.669 255.28 285.157 255.702 283.776C256.125 282.394 256.944 281.196 258.161 280.183C259.386 279.153 260.949 278.364 262.851 277.817C264.278 277.407 265.683 277.185 267.067 277.153C268.46 277.105 269.952 277.19 271.543 277.41L270.941 282.481C269.532 282.331 268.289 282.262 267.21 282.274C266.128 282.274 265.068 282.423 264.029 282.722C263.303 282.93 262.717 283.228 262.271 283.613C261.822 283.987 261.526 284.424 261.383 284.926C261.236 285.415 261.241 285.935 261.396 286.487C261.579 287.139 261.922 287.636 262.425 287.979C262.936 288.306 263.632 288.567 264.512 288.761C265.404 288.951 266.503 289.157 267.81 289.377C269.398 289.638 270.789 289.99 271.982 290.433C273.184 290.859 274.192 291.484 275.005 292.307C275.815 293.117 276.423 294.243 276.829 295.684ZM299.756 297.34L283.951 301.886L276.214 274.4L292.018 269.853L293.363 274.629L283.377 277.501L285.076 283.536L294.367 280.863L295.711 285.639L286.42 288.311L288.415 295.399L298.401 292.527L299.756 297.34ZM324.325 275.131C325.196 278.227 325.33 280.986 324.727 283.409C324.133 285.815 322.864 287.867 320.921 289.564C318.974 291.249 316.424 292.545 313.27 293.452L305.499 295.687L297.762 268.201L306.378 265.722C309.256 264.894 311.897 264.69 314.301 265.11C316.701 265.516 318.766 266.555 320.494 268.226C322.219 269.884 323.496 272.186 324.325 275.131ZM318.323 277.02C317.752 274.99 316.982 273.409 316.014 272.278C315.056 271.131 313.906 270.412 312.566 270.12C311.239 269.825 309.724 269.922 308.022 270.411L304.925 271.302L309.963 289.2L312.46 288.482C315.3 287.665 317.195 286.3 318.145 284.388C319.107 282.471 319.166 280.016 318.323 277.02Z" fill="white"/>
</g>
<defs>
<filter id="filter0_i_88_312" x="53.6565" y="188.45" width="391.501" height="197.038" filterUnits="userSpaceOnUse" color-interpolation-filters="sRGB">
<feFlood flood-opacity="0" result="BackgroundImageFix"/>
<feBlend mode="normal" in="SourceGraphic" in2="BackgroundImageFix" result="shape"/>
<feColorMatrix in="SourceAlpha" type="matrix" values="0 0 0 0 0 0 0 0 0 0 0 0 0 0 0 0 0 0 127 0" result="hardAlpha"/>
<feOffset dy="4"/>
<feGaussianBlur stdDeviation="2"/>
<feComposite in2="hardAlpha" operator="arithmetic" k2="-1" k3="1"/>
<feColorMatrix type="matrix" values="0 0 0 0 0 0 0 0 0 0 0 0 0 0 0 0 0 0 0.25 0"/>
<feBlend mode="normal" in2="shape" result="effect1_innerShadow_88_312"/>
</filter>
<filter id="filter1_i_88_312" x="60.5396" y="295.793" width="7.07837" height="11.1958" filterUnits="userSpaceOnUse" color-interpolation-filters="sRGB">
<feFlood flood-opacity="0" result="BackgroundImageFix"/>
<feBlend mode="normal" in="SourceGraphic" in2="BackgroundImageFix" result="shape"/>
<feColorMatrix in="SourceAlpha" type="matrix" values="0 0 0 0 0 0 0 0 0 0 0 0 0 0 0 0 0 0 127 0" result="hardAlpha"/>
<feOffset dy="4"/>
<feGaussianBlur stdDeviation="2"/>
<feComposite in2="hardAlpha" operator="arithmetic" k2="-1" k3="1"/>
<feColorMatrix type="matrix" values="0 0 0 0 0 0 0 0 0 0 0 0 0 0 0 0 0 0 0.25 0"/>
<feBlend mode="normal" in2="shape" result="effect1_innerShadow_88_312"/>
</filter>
<filter id="filter2_i_88_312" x="80.425" y="368.617" width="7.07959" height="11.1968" filterUnits="userSpaceOnUse" color-interpolation-filters="sRGB">
<feFlood flood-opacity="0" result="BackgroundImageFix"/>
<feBlend mode="normal" in="SourceGraphic" in2="BackgroundImageFix" result="shape"/>
<feColorMatrix in="SourceAlpha" type="matrix" values="0 0 0 0 0 0 0 0 0 0 0 0 0 0 0 0 0 0 127 0" result="hardAlpha"/>
<feOffset dy="4"/>
<feGaussianBlur stdDeviation="2"/>
<feComposite in2="hardAlpha" operator="arithmetic" k2="-1" k3="1"/>
<feColorMatrix type="matrix" values="0 0 0 0 0 0 0 0 0 0 0 0 0 0 0 0 0 0 0.25 0"/>
<feBlend mode="normal" in2="shape" result="effect1_innerShadow_88_312"/>
</filter>
<filter id="filter3_i_88_312" x="431.389" y="267.902" width="7.07959" height="11.1968" filterUnits="userSpaceOnUse" color-interpolation-filters="sRGB">
<feFlood flood-opacity="0" result="BackgroundImageFix"/>
<feBlend mode="normal" in="SourceGraphic" in2="BackgroundImageFix" result="shape"/>
<feColorMatrix in="SourceAlpha" type="matrix" values="0 0 0 0 0 0 0 0 0 0 0 0 0 0 0 0 0 0 127 0" result="hardAlpha"/>
<feOffset dy="4"/>
<feGaussianBlur stdDeviation="2"/>
<feComposite in2="hardAlpha" operator="arithmetic" k2="-1" k3="1"/>
<feColorMatrix type="matrix" values="0 0 0 0 0 0 0 0 0 0 0 0 0 0 0 0 0 0 0.25 0"/>
<feBlend mode="normal" in2="shape" result="effect1_innerShadow_88_312"/>
</filter>
<filter id="filter4_i_88_312" x="410.832" y="194.697" width="7.07959" height="11.1968" filterUnits="userSpaceOnUse" color-interpolation-filters="sRGB">
<feFlood flood-opacity="0" result="BackgroundImageFix"/>
<feBlend mode="normal" in="SourceGraphic" in2="BackgroundImageFix" result="shape"/>
<feColorMatrix in="SourceAlpha" type="matrix" values="0 0 0 0 0 0 0 0 0 0 0 0 0 0 0 0 0 0 127 0" result="hardAlpha"/>
<feOffset dy="4"/>
<feGaussianBlur stdDeviation="2"/>
<feComposite in2="hardAlpha" operator="arithmetic" k2="-1" k3="1"/>
<feColorMatrix type="matrix" values="0 0 0 0 0 0 0 0 0 0 0 0 0 0 0 0 0 0 0.25 0"/>
<feBlend mode="normal" in2="shape" result="effect1_innerShadow_88_312"/>
</filter>
<filter id="filter5_i_88_312" x="176.855" y="243.152" width="151.518" height="91.6587" filterUnits="userSpaceOnUse" color-interpolation-filters="sRGB">
<feFlood flood-opacity="0" result="BackgroundImageFix"/>
<feBlend mode="normal" in="SourceGraphic" in2="BackgroundImageFix" result="shape"/>
<feColorMatrix in="SourceAlpha" type="matrix" values="0 0 0 0 0 0 0 0 0 0 0 0 0 0 0 0 0 0 127 0" result="hardAlpha"/>
<feOffset dy="4"/>
<feGaussianBlur stdDeviation="2"/>
<feComposite in2="hardAlpha" operator="arithmetic" k2="-1" k3="1"/>
<feColorMatrix type="matrix" values="0 0 0 0 0 0 0 0 0 0 0 0 0 0 0 0 0 0 0.25 0"/>
<feBlend mode="normal" in2="shape" result="effect1_innerShadow_88_312"/>
</filter>
</defs>
</svg>
